<svg width="18" height="18" viewBox="0 0 18 18" fill="none" xmlns="http://www.w3.org/2000/svg">
<g clip-path="url(#clip0_8_2919)">
<path d="M12.0477 8.99957L17.3685 3.67923C18.2104 2.83734 18.2104 1.47255 17.3685 0.631095C16.5275 -0.210365 15.1618 -0.210365 14.3208 0.631095L9.00001 5.95229L3.67925 0.631095C2.83822 -0.210365 1.47257 -0.210365 0.63154 0.631095C-0.210351 1.47299 -0.210351 2.83777 0.63154 3.67923L5.95188 8.99957L0.63154 14.3199C-0.210351 15.1618 -0.210351 16.5266 0.63154 17.368C1.05184 17.7892 1.60405 17.9991 2.15539 17.9991C2.70631 17.9991 3.25895 17.7892 3.67925 17.368L9.00001 12.0477L14.3208 17.3685C14.7415 17.7896 15.2933 17.9996 15.8446 17.9996C16.396 17.9996 16.9482 17.7896 17.3685 17.3685C18.2104 16.5266 18.2104 15.1618 17.3685 14.3203L12.0477 8.99957Z" fill="white"/>
</g>
<defs>
<clipPath id="clip0_8_2919">
<rect width="18" height="18" fill="white"/>
</clipPath>
</defs>
</svg>
